<svg xmlns="http://www.w3.org/2000/svg" width="512" height="512" viewBox="0 0 454.668 454"><path xmlns="http://www.w3.org/2000/svg" d="M413.773 229.36H12.477C5.586 229.36 0 234.95 0 241.835c0 6.894 5.586 12.476 12.477 12.476h401.296c6.891 0 12.477-5.582 12.477-12.476 0-6.887-5.586-12.477-12.477-12.477zm0-117.286H12.477C5.586 112.074 0 117.668 0 124.554c0 6.891 5.586 12.477 12.477 12.477h401.296c6.891 0 12.477-5.586 12.477-12.476 0-6.887-5.586-12.48-12.477-12.48zm0-117.281H12.477C5.586-5.207 0 .383 0 7.27c0 6.89 5.586 12.476 12.477 12.476h401.296c6.891 0 12.477-5.586 12.477-12.476 0-6.887-5.586-12.477-12.477-12.477zm0 0" fill="#fff" data-original="#000000"/></svg>